<svg xmlns="http://www.w3.org/2000/svg" width="200" height="200" viewBox="0 0 200 200" role="img" aria-label="Salon Notebook">
  <rect x="0" y="0" width="200" height="200" rx="46" fill="#1B2447"/>
  <rect x="92" y="42" width="6" height="14" rx="3" fill="#93C5FD"/>
  <rect x="134" y="42" width="6" height="14" rx="3" fill="#93C5FD"/>
  <rect x="68" y="50" width="96" height="118" rx="14" fill="#FDF7FF"/>
  <rect x="72" y="54" width="88" height="22" rx="6" fill="#3B82F6"/>
  <circle cx="92" cy="98" r="4" fill="#F59E0B"/>
  <line x1="104" y1="98" x2="150" y2="98" stroke="#CBD5E1" stroke-width="4" stroke-linecap="round"/>
  <circle cx="92" cy="120" r="4" fill="#14B8A6"/>
  <line x1="104" y1="120" x2="150" y2="120" stroke="#CBD5E1" stroke-width="4" stroke-linecap="round"/>
  <line x1="104" y1="142" x2="138" y2="142" stroke="#CBD5E1" stroke-width="4" stroke-linecap="round"/>
  <rect x="40" y="58" width="24" height="22" rx="6" fill="#14B8A6"/>
  <rect x="44" y="78" width="16" height="10" fill="#99F6E4"/>
  <rect x="32" y="86" width="40" height="66" rx="12" fill="#F472B6"/>
  <line x1="41" y1="98" x2="41" y2="140" stroke="#FBCFE8" stroke-width="4" stroke-linecap="round"/>
  <circle cx="170" cy="52" r="24" fill="#FFFFFF"/>
  <circle cx="170" cy="52" r="24" fill="none" stroke="#1B2447" stroke-width="3"/>
  <line x1="170" y1="34" x2="170" y2="38" stroke="#CBD5E1" stroke-width="3" stroke-linecap="round"/>
  <line x1="170" y1="66" x2="170" y2="70" stroke="#CBD5E1" stroke-width="3" stroke-linecap="round"/>
  <line x1="152" y1="52" x2="156" y2="52" stroke="#CBD5E1" stroke-width="3" stroke-linecap="round"/>
  <line x1="184" y1="52" x2="188" y2="52" stroke="#CBD5E1" stroke-width="3" stroke-linecap="round"/>
  <line x1="170" y1="52" x2="170" y2="40" stroke="#1B2447" stroke-width="5" stroke-linecap="round"/>
  <line x1="170" y1="52" x2="182" y2="58" stroke="#F59E0B" stroke-width="5" stroke-linecap="round"/>
  <circle cx="170" cy="52" r="3.5" fill="#1B2447"/>
  <circle cx="164" cy="150" r="22" fill="#22C55E"/>
  <circle cx="164" cy="150" r="22" fill="none" stroke="#1B2447" stroke-width="3"/>
  <path d="M153 150 L161 158 L177 141" fill="none" stroke="#FFFFFF" stroke-width="5" stroke-linecap="round" stroke-linejoin="round"/>
</svg>
